PathFileType	4	(X/Y/Z)	Kaydara	
DataRate	CameraRate	NumFrames	NumMarkers	Units	OrigDataRate	OrigDataStartFrame	OrigNumFrames	
240.00	240.00	4	72	mm	240.00	1	359	
Frame#	Time	Hips			RightUpLeg			RightLeg			RightFoot			RightFoot_End			LeftUpLeg			LeftLeg			LeftFoot			LeftFoot_End			Spine			Spine1			Spine2			Spine3			Neck			Head			Head_End			RightShoulder			RightArm			RightForeArm			RightHand			RightHandThumb1			RightHandThumb2			RightHandThumb3			RightHandThumb3_End			RightInHandIndex			RightHandIndex1			RightHandIndex2			RightHandIndex3			RightHandIndex3_End			RightInHandMiddle			RightHandMiddle1			RightHandMiddle2			RightHandMiddle3			RightHandMiddle3_End			RightInHandRing			RightHandRing1			RightHandRing2			RightHandRing3			RightHandRing3_End			RightInHandPinky			RightHandPinky1			RightHandPinky2			RightHandPinky3			RightHandPinky3_End			LeftShoulder			LeftArm			LeftForeArm			LeftHand			LeftHandThumb1			LeftHandThumb2			LeftHandThumb3			LeftHandThumb3_End			LeftInHandIndex			LeftHandIndex1			LeftHandIndex2			LeftHandIndex3			LeftHandIndex3_End			LeftInHandMiddle			LeftHandMiddle1			LeftHandMiddle2			LeftHandMiddle3			LeftHandMiddle3_End			LeftInHandRing			LeftHandRing1			LeftHandRing2			LeftHandRing3			LeftHandRing3_End			LeftInHandPinky			LeftHandPinky1			LeftHandPinky2			LeftHandPinky3			LeftHandPinky3_End			
		X1	Y1	Z1	X2	Y2	Z2	X3	Y3	Z3	X4	Y4	Z4	X5	Y5	Z5	X6	Y6	Z6	X7	Y7	Z7	X8	Y8	Z8	X9	Y9	Z9	X10	Y10	Z10	X11	Y11	Z11	X12	Y12	Z12	X13	Y13	Z13	X14	Y14	Z14	X15	Y15	Z15	X16	Y16	Z16	X17	Y17	Z17	X18	Y18	Z18	X19	Y19	Z19	X20	Y20	Z20	X21	Y21	Z21	X22	Y22	Z22	X23	Y23	Z23	X24	Y24	Z24	X25	Y25	Z25	X26	Y26	Z26	X27	Y27	Z27	X28	Y28	Z28	X29	Y29	Z29	X30	Y30	Z30	X31	Y31	Z31	X32	Y32	Z32	X33	Y33	Z33	X34	Y34	Z34	X35	Y35	Z35	X36	Y36	Z36	X37	Y37	Z37	X38	Y38	Z38	X39	Y39	Z39	X40	Y40	Z40	X41	Y41	Z41	X42	Y42	Z42	X43	Y43	Z43	X44	Y44	Z44	X45	Y45	Z45	X46	Y46	Z46	X47	Y47	Z47	X48	Y48	Z48	X49	Y49	Z49	X50	Y50	Z50	X51	Y51	Z51	X52	Y52	Z52	X53	Y53	Z53	X54	Y54	Z54	X55	Y55	Z55	X56	Y56	Z56	X57	Y57	Z57	X58	Y58	Z58	X59	Y59	Z59	X60	Y60	Z60	X61	Y61	Z61	X62	Y62	Z62	X63	Y63	Z63	X64	Y64	Z64	X65	Y65	Z65	X66	Y66	Z66	X67	Y67	Z67	X68	Y68	Z68	X69	Y69	Z69	X70	Y70	Z70	X71	Y71	Z71	X72	Y72	Z72	

1	0.0	1198.941	914.58397	126.699	1254.3594084752528	897.1947942629199	53.24369204578925	1159.7852619751218	500.3595774405513	-42.07048594832813	1143.1253656907088	108.91025717238035	-117.96362317492557	991.308950497093	31.878056935086217	-31.03600388706199	1158.1356593477453	905.9788213559082	211.5501852206872	1067.6255471499092	503.99784096542345	286.61225119046384	996.3768501660946	79.35622221643699	377.33046740748364	874.7505512909323	-3.1384112438472465	255.0992514055279	1130.9256337708007	1031.270651916231	79.14348047125137	1067.8848521686978	1087.0976866670592	30.569050338691767	999.1414104737236	1137.9821086272402	-23.588181445432454	929.3856440438075	1174.7045209117855	-80.37618086046392	853.8309414341252	1214.4971984276656	-139.39636654501294	783.4724622208208	1251.1733192983936	-190.53994017437412	644.7947915223491	1329.794919195981	-197.0234370039849	899.1705241852069	1202.4172774755552	-144.44718501414698	957.0553221975354	1192.7673897146242	-263.5417618102832	1040.5550646845172	931.0461966362524	-296.0473745714574	1046.4372504070361	782.1028851368782	-476.9203808544366	1052.3871462538066	788.5943658904417	-506.3909976704407	1034.765733461365	787.3717017523521	-532.2457173220264	1022.2360386887801	783.5414225297675	-549.31004147945	1011.569745581121	777.7999712541686	-562.730911859574	1054.4400338797718	778.3511003332776	-506.2931792064255	1055.1778260286762	762.2639057563368	-545.2198150823164	1042.6986751288966	751.9264409450435	-569.2579368818216	1027.9617569251518	749.6452310421496	-580.2736186483463	1011.0567136613914	750.553404004851	-586.7411856466134	1053.094704178047	770.8498736596674	-502.2341830703491	1053.0903350142285	751.10124284623	-538.0074124957089	1039.2769572488703	738.8844966918367	-563.5721366522934	1021.4032766076095	735.6829101738851	-576.54270884625	1002.8603316276158	736.4581466697964	-583.4641079513057	1052.2557851282775	765.9293965726192	-498.40573252585295	1051.9051033194478	743.8675240699592	-527.2376196474803	1039.6634087326727	732.2936198322868	-548.7828266127832	1022.3155791986355	728.7138200109198	-560.9025210961851	1004.8297098414498	729.2097790107055	-567.2248781745986	1050.240378611682	760.9715571182611	-492.60887684703573	1049.1139922301725	737.5695552805784	-515.6014446405823	1038.9968655616372	726.9537707093508	-531.578109311947	1026.1911898505195	723.6906614717079	-539.8010611289269	1010.6140171198289	723.7547728081049	-545.0464191270671	858.5986817333986	1200.319122794483	-93.94285326983851	810.2914935431538	1134.181378736402	9.934826947172668	957.9582943623544	972.6751307745703	-158.29772779374855	1052.5281962813615	848.6683737057899	-369.9955497421249	1079.6492337490056	859.2028209257546	-391.60448404856015	1116.8422588702426	851.955515766288	-401.0694367981591	1141.8843954376782	843.5782760859289	-407.8484449690559	1162.026009641682	833.7456204503007	-413.660308703385	1078.212392009048	849.0505743075199	-395.9667566880158	1117.941555760689	833.7345058442568	-428.9603134582403	1150.1057053556412	818.7004582804791	-442.80183947441964	1170.1982689168253	810.8532632709599	-443.6888090243212	1186.8937017935275	805.3695790420743	-439.2167145483346	1074.7076810809256	840.3180366424717	-394.8952474147842	1111.5613219957895	820.6570185283313	-426.4991924814385	1146.073142993487	803.1438578987659	-441.3432569352858	1170.0330324385407	793.1448037460951	-442.28866162534956	1188.1642397000355	786.8861859183914	-437.3347595484629	1071.1742037224017	834.5589543439298	-393.3966668342542	1101.0076307771794	811.9968351736995	-420.71292501870846	1130.4320566373356	795.6305563758513	-433.33462297472863	1153.1947843521375	785.4005861884297	-434.0784693454902	1170.077547560779	779.2386493863372	-429.3408945855006	1066.2939242126533	828.2105278411594	-389.92283499533727	1090.5149188093385	803.6637671830327	-413.1830253101853	1112.923372544179	788.9376487782306	-422.67644389488754	1128.9685988054837	780.6919350868736	-422.9222055392299	1143.602840659478	774.7822910389832	-418.55466862613935
2	0.004	1198.941	914.58397	126.699	1254.383223270424	897.2299263064725	53.2446377353364	1159.7970982790282	500.38971261170445	-42.039323817188404	1143.095917473443	108.94149039177216	-117.93819883619378	991.2841668980335	31.910172468204973	-31.001675369168314	1158.1139703386343	905.9418500685757	211.54296980758778	1067.5688192242242	503.97017768228045	286.61316751410135	996.317715233183	79.33809236923696	377.3841764824002	874.6805580833877	-3.1484308057210133	255.15821543005012	1130.9150524636843	1031.2772389386867	79.17132893469822	1067.8010020126485	1087.020949403142	30.596957518924178	999.0087306237955	1137.8429347696629	-23.55562782313242	929.2693295671271	1174.5899639530685	-80.34762492728012	853.7306205113728	1214.4076259236472	-139.37128113544793	783.3849357709953	1251.104687945227	-190.51722770746844	644.6779056642932	1329.6800134131136	-197.0077200866687	899.0941583424443	1202.3705269874777	-144.42047220871754	957.1796717089412	1192.9995658412274	-263.625067746603	1041.0296545005124	931.0003081462642	-296.80219363394417	1047.1020719644496	782.3018702272246	-478.48366659576004	1053.1300999409193	788.8589794065791	-508.10325968276913	1035.4402418312714	787.7003245594143	-534.1642256206287	1022.85225366512	783.911937210583	-551.3725100850355	1012.1282714403451	778.2031357965805	-564.9136703513763	1055.1646937153462	778.6125793749725	-508.0172344021184	1055.8997754723496	762.6092127869957	-547.2039119142371	1043.3512313911697	752.327918106557	-571.4391942299092	1028.5430022027444	750.076104394422	-582.5659130896522	1011.5599266417112	751.0048726011709	-589.1175963902272	1053.7873338221607	771.1010612770274	-503.9508411643581	1053.7630216817272	751.4286405284051	-539.9736926612529	1039.8696331109854	739.2715484600724	-565.7517602867384	1021.9078395862841	736.104636718816	-578.8554325221662	1003.2785023503042	736.9020446202322	-585.8684468406047	1052.9264743596052	766.1711952441395	-500.11041386458186	1052.5406693281316	744.169548204418	-529.1552913201144	1040.224860266106	732.6458442935357	-550.8842225446526	1022.7897319140737	729.098540848357	-563.1311148516268	1005.2215340352935	729.6148907349061	-569.5390490883381	1050.8810093159302	761.1999477888673	-494.2930943324768	1049.7059408959494	737.8450025256376	-517.4681157259441	1039.5227987093144	727.2663706654525	-533.5874969294545	1026.6502129733456	724.0254895825232	-541.9010803666183	1010.9982479352578	724.1068139024671	-547.2210285425795	858.4624593352238	1200.1686376706032	-93.91631436789295	810.0048441241661	1133.7713559208657	9.913344884680757	957.8322394732415	972.4885817210828	-159.01885703417176	1052.7895233738543	848.8378097634951	-371.33489867702207	1080.1133852282546	859.42564847807	-393.0036723025073	1117.5007768923865	852.1998211611906	-402.4317324489608	1142.6646755970503	843.8360534003782	-409.1897613164255	1162.896175363619	834.0133617191358	-414.98817213951844	1078.6461079629787	849.2766889892637	-397.4010189354515	1118.5896357488298	834.0256385336966	-430.5021071288372	1150.904641562859	819.0170026036495	-444.35061721354026	1171.086331934355	811.1708890934148	-445.1925023934601	1187.8524133257522	805.6781729794202	-440.6497619530105	1075.097031297454	840.5369016453695	-396.3353653321459	1112.1357734098938	820.9353925916237	-428.0473662942338	1146.805658892971	803.4487703429335	-442.8993949129617	1170.869937205819	793.4504461601451	-443.7905655939741	1189.0769096048016	787.1816570383526	-438.75943748492085	1071.5266895704588	834.7712473451801	-394.8389114637381	1101.4938098054188	812.2573467747255	-422.25602999184304	1131.0490183600514	795.9128823026577	-434.8848250535945	1153.9087345095663	785.6829256006993	-435.5764504775501	1170.8609804456723	779.5110980488054	-430.7663141458429	1066.5981949173554	828.4117430279994	-391.35856708065637	1090.9119460657246	803.9030842662364	-414.7097890824522	1113.4136513175322	789.19218768056	-424.2087066974154	1129.5240671462036	780.9453753092896	-424.41629171970413	1144.216666400175	775.0263465683346	-419.98442517694946
3	0.008	1198.941	914.58397	126.699	1254.4203384139419	897.2602487065133	53.25638732556262	1159.826172792013	500.415678417886	-42.00368782825219	1143.0543277994839	108.96269265796546	-117.87365520852961	991.232959359326	31.944035530233013	-30.942733763987285	1158.0766698788002	905.9103676122387	211.5290854048342	1067.5149157811618	503.94214455523337	286.59803430972175	996.2725140815432	79.3152349866789	377.40981111283884	874.6371516909786	-3.1637266861859477	255.17690159283532	1130.9142423130115	1031.2809633380466	79.1801411739138	1067.7509422120504	1086.9594295243671	30.596464297134624	998.927655150076	1137.7299419047436	-23.563100010934022	929.2036589556433	1174.4862251198876	-80.36736817211334	853.6800817728339	1214.3131000548988	-139.40351675154977	783.346484090104	1251.017427486869	-190.56030546424535	644.6234583598243	1329.576173035528	-196.98032612999214	899.0656629100242	1202.3138661695414	-144.44510160325683	957.1911750776092	1192.842093819978	-263.533302203934	1041.2576325651119	930.6613647973702	-297.17211729225284	1047.4194890402152	782.1883625299516	-479.8220255977351	1053.4788274328218	788.8194058648592	-509.4953166344361	1035.7743648446915	787.7397775900711	-535.6646406538865	1023.1775730050659	784.0032640385308	-552.9592996929309	1012.44742176834	778.3349818279976	-566.5818166113495	1055.5269816805346	778.5680911083598	-509.4526745413182	1056.3107296689468	762.6598069915298	-548.8312631650682	1043.7652264420115	752.4463384438451	-573.2038367559098	1028.9370674811141	750.2328160383872	-584.3941591742564	1011.9227766386105	751.190669071474	-590.9838220827435	1054.1501974197113	771.0447212830684	-505.40948561210354	1054.173668430771	751.4586133853495	-541.6320797276811	1040.283468777476	739.3736702540921	-567.5623984135875	1022.297584346373	736.2520657834424	-580.7439796587101	1003.6340695028006	737.0808439314103	-587.7991228463391	1053.288835458812	766.1040350549711	-501.58062910610045	1052.9463883960243	744.1702813140959	-530.8147797512268	1040.6331612635954	732.7074208392291	-552.6785906755425	1023.1746720056414	729.2027301594879	-565.0017881689164	1005.5742788683325	729.7480675958677	-571.4498837103018	1051.2387650933238	761.1176959326593	-495.7705249264806	1050.1017496711847	737.8157056741622	-519.1238840472746	1039.9201691815078	727.2822985700288	-535.3538482181957	1027.0302970407977	724.070804036794	-543.7243475898711	1011.3496829494885	724.1768395015669	-549.080580661687	858.3786065761049	1200.028983988251	-93.94728269895215	809.9266935854585	1133.5784835119787	9.872768607951969	957.8795660329226	972.4775360870227	-159.61404652364615	1053.2311107009928	849.1566168802635	-372.44294400901265	1080.651523143586	859.762194540205	-394.1056298555037	1118.1426472019605	852.5234997668036	-403.5292085200877	1143.3764398004198	844.1530176366467	-410.29607845021013	1163.664194442953	834.3266556486905	-416.11208080941606	1079.1848803108169	849.6272134671857	-398.54932191935603	1119.2674441698703	834.4145099582603	-431.73886362131316	1151.67819861434	819.4097373353668	-445.6274571631884	1171.9100031421885	811.5486861909194	-446.4658677009837	1188.7111959012225	806.0319065870453	-441.901093166163	1075.6245424628896	840.8911435227863	-397.51208936681905	1112.7927913689182	821.3290409380178	-429.32576120814485	1147.565219925741	803.8469751237254	-444.22495831890393	1171.689027150458	793.8307926243375	-445.11359362562433	1189.9339776700267	787.5357592696532	-440.0591634907084	1072.042705934959	835.1273889718341	-396.0337771565004	1102.1159922921252	812.6511983741034	-423.55867887155244	1131.7583938434052	796.3109829467405	-436.231942264232	1154.6743691180454	786.0639451141219	-436.9228958698838	1171.6617677520194	779.8675089887528	-432.09168461445296	1067.0967703587974	828.7669584306618	-392.5693194620497	1091.4972608619312	804.2931940060666	-416.03025456434784	1114.0649137381324	789.5859570136594	-425.569535380778	1130.2144907790198	781.3268224518146	-425.77893378833215	1144.9371568522504	775.3860673320621	-421.32971887153565
4	0.013	1198.941	914.58397	126.699	1254.454135378152	897.2953123122938	53.26445641613308	1159.876115971111	500.439909114517	-41.968955613075316	1143.0573159373512	108.98273021020464	-117.81664364675281	991.2388386276785	31.965807273249624	-30.879171235772873	1158.0461298282987	905.8755877474373	211.51798505987318	1067.491341338016	503.9098421853389	286.60948750651386	996.2760481996908	79.28917077677207	377.48360958951713	874.6392480243629	-3.191364041248835	255.25315454048692	1130.8981803175645	1031.2780004820238	79.1932389218764	1067.6908190001386	1086.8988182097764	30.602481301483387	998.8389206201481	1137.621452233569	-23.563469051889285	929.1252655406784	1174.3766669915628	-80.38001757847121	853.6114698928886	1214.2018792280355	-139.42865683149836	783.285022124645	1250.9035213574246	-190.59633534295503	644.5413090536914	1329.4326233844872	-196.99456145045485	899.0192923029111	1202.2406936726027	-144.46219866817452	957.3014040239602	1192.892595752477	-263.56799862777444	1041.5903700582842	930.5538474984223	-297.60090428650034	1048.1930460578412	782.3178374612487	-480.9884681345579	1054.2768071957855	789.0206404582625	-510.6903437462794	1036.5744065780377	788.0198786260266	-536.9423101000469	1023.9833650606005	784.33554522029	-554.3079821686414	1013.2616871120325	778.7084200882996	-568.0011928139637	1056.3469049919652	778.7656854299751	-510.69834072352097	1057.1989108281432	762.9530628271842	-550.2487071239665	1044.6780399201828	752.8083171648076	-574.7418318125725	1029.843835002346	750.6335097679893	-585.9833629415557	1012.8101348078382	751.6207024207762	-592.5994143943136	1054.9783545719722	771.2316244628721	-506.6857951316358	1055.0728696997587	751.7330480810801	-543.0925107479404	1041.2103909522154	739.7213733964992	-569.15785975218	1023.2176067903017	736.6456465537508	-582.4028960486845	1004.5330501149451	737.5061354427888	-589.4877242603557	1054.121336491134	766.2809196241659	-502.87431758641236	1053.8471391801374	744.4168685436845	-532.2888727554447	1041.558814630504	733.0159776504763	-554.2736517770006	1024.0940694696756	729.5545339687993	-566.6598061726108	1006.4740940862102	730.1292108516176	-573.1366472600125	1052.072147547728	761.2804454812773	-497.0783770618669	1050.9992240351685	738.0336207485527	-520.6063809394996	1040.838426785183	727.5465727208722	-536.9375285422356	1027.9444175456583	724.3650594169293	-545.3560373831104	1012.2466779756226	724.4961659920372	-550.7389316734408	858.280090877909	1199.8798572273029	-93.97169497362329	809.7299831518571	1133.242736669624	9.814267485906184	957.8163841639029	972.3120415005253	-160.16676479959844	1053.5765846955287	849.3120107372404	-373.46731270447873	1081.0717327556608	859.9231257679768	-395.10653579467726	1118.647550480588	852.6620250719988	-404.5294696587932	1143.940411836691	844.2795895715036	-411.3091046059208	1164.2774787064973	834.4463610254927	-417.1470665769818	1079.612616817931	849.8059393621902	-399.5974182631313	1119.8195851166622	834.6238547518416	-432.8636755537262	1152.3149129807432	819.6175986544605	-446.79509752498285	1172.5884838218499	811.7377726302528	-447.63761901276536	1189.416962929865	806.193412649533	-443.0610561890555	1076.0480781948834	841.0775923602207	-398.59295821704535	1113.3354009725113	821.5495516687549	-430.4991878676103	1148.1991612425868	804.0667469955772	-445.4491773725201	1172.372894833381	794.0283409240377	-446.34471279798345	1190.6474612407792	787.7033487963486	-441.2783323099206	1072.4601441984205	835.3187673996181	-397.13605813401716	1102.634980943982	812.8781588765997	-424.76309316791037	1132.3558179390554	796.538164357249	-437.4846369835761	1155.3193272003755	786.2701391894066	-438.18438143485577	1172.3342896259574	780.0457473187881	-433.3429376311869	1067.5032205911575	828.961097719821	-393.6923981714815	1091.9902753206263	804.5225309368035	-417.2605664525727	1114.6184667487605	789.8166501126235	-426.84431014317295	1130.8016203892478	781.5427806376782	-427.0629121918762	1145.548055429195	775.5775808494215	-422.6062596351265
